<svg viewBox="0 0 80 30" fill="none" xmlns="http://www.w3.org/2000/svg">
  <g id="root">
    <path d="M6.74148 25C11.3949 25 14.2138 22.1214 14.2138 17.3487C14.2138 12.5909 11.3949 9.72727 6.78622 9.72727H1.32741V25H6.74148ZM4.55646 22.2333V12.494H6.6147C9.47834 12.494 10.9922 13.9556 10.9922 17.3487C10.9922 20.7567 9.47834 22.2333 6.60724 22.2333H4.55646ZM16.1261 25H19.3029V18.5195C19.3029 17.1101 20.332 16.1406 21.734 16.1406C22.174 16.1406 22.7781 16.2152 23.0764 16.3121V13.4933C22.793 13.4261 22.3977 13.3814 22.0771 13.3814C20.7944 13.3814 19.7429 14.1271 19.3253 15.544H19.206V13.5455H16.1261V25ZM28.9858 25.2237C31.8196 25.2237 33.7287 23.8441 34.1762 21.7188L31.2379 21.5249C30.9173 22.3974 30.097 22.8523 29.038 22.8523C27.4496 22.8523 26.4428 21.8008 26.4428 20.093V20.0856H34.2433V19.2131C34.2433 15.3203 31.8867 13.3963 28.859 13.3963C25.4883 13.3963 23.3033 15.7901 23.3033 19.3249C23.3033 22.9567 25.4585 25.2237 28.9858 25.2237ZM26.4428 18.1168C26.51 16.8118 27.5018 15.7678 28.9112 15.7678C30.2909 15.7678 31.2454 16.7521 31.2529 18.1168H26.4428ZM45.427 16.8118C45.1436 14.7013 43.4433 13.3963 40.5498 13.3963C37.6191 13.3963 35.6876 14.7536 35.6951 16.9609C35.6876 18.6761 36.7689 19.7873 39.0062 20.2347L40.9898 20.63C41.9891 20.8313 42.444 21.1967 42.4589 21.771C42.444 22.4496 41.7057 22.9343 40.5946 22.9343C39.4611 22.9343 38.7079 22.4496 38.514 21.5174L35.3893 21.6815C35.6876 23.8739 37.552 25.2237 40.5871 25.2237C43.5552 25.2237 45.6805 23.7099 45.688 21.4503C45.6805 19.7947 44.5992 18.8029 42.3769 18.348L40.3037 17.9304C39.2373 17.6992 38.8421 17.3338 38.8496 16.782C38.8421 16.0959 39.6177 15.6484 40.602 15.6484C41.7057 15.6484 42.362 16.2525 42.5186 16.9908L45.427 16.8118ZM56.799 16.8118C56.5156 14.7013 54.8153 13.3963 51.9218 13.3963C48.9911 13.3963 47.0596 14.7536 47.0671 16.9609C47.0596 18.6761 48.1409 19.7873 50.3781 20.2347L52.3618 20.63C53.3611 20.8313 53.816 21.1967 53.8309 21.771C53.816 22.4496 53.0777 22.9343 51.9666 22.9343C50.8331 22.9343 50.0799 22.4496 49.886 21.5174L46.7613 21.6815C47.0596 23.8739 48.924 25.2237 51.9591 25.2237C54.9272 25.2237 57.0525 23.7099 57.06 21.4503C57.0525 19.7947 55.9712 18.8029 53.7489 18.348L51.6757 17.9304C50.6093 17.6992 50.2141 17.3338 50.2215 16.782C50.2141 16.0959 50.9897 15.6484 51.974 15.6484C53.0777 15.6484 53.734 16.2525 53.8906 16.9908L56.799 16.8118ZM60.6017 29.2955C62.9657 29.2955 64.2185 28.0874 64.8673 26.2379L69.3194 13.5604L65.9561 13.5455L63.5623 21.9574H63.443L61.0715 13.5455H57.7306L61.8396 25.3281L61.6532 25.8129C61.2356 26.8867 60.4376 26.9389 59.319 26.5959L58.6031 28.9673C59.058 29.1612 59.7963 29.2955 60.6017 29.2955Z" fill="#001952"/>
    <path d="M74.0187 25.2955C75.4733 25.2955 76.7346 24.0795 76.746 22.5682C76.7346 21.0795 75.4733 19.8636 74.0187 19.8636C72.5187 19.8636 71.2801 21.0795 71.2914 22.5682C71.2801 24.0795 72.5187 25.2955 74.0187 25.2955Z" fill="#ED6F54"/>
  </g>
</svg>
