<svg viewBox="0 0 158 76" fill="none" xmlns="http://www.w3.org/2000/svg">
  <g id="root">
    <rect width="158" height="76" rx="4.68148" fill="white"/>
    <path d="M45.4928 49.6155H51.7806V40.5683H60.7826V35.5018H51.7806V31.5211H61.7778V26.4546H45.4928V49.6155ZM85.7133 35.14C85.2157 29.395 81.0087 26.138 75.1733 26.138C68.9307 26.138 64 30.2997 64 38.0351C64 45.7365 68.795 49.9321 75.1733 49.9321C81.9587 49.9321 85.3966 45.2276 85.7133 41.2921L79.335 41.2468C79.0183 43.2259 77.616 44.4586 75.309 44.4586C72.2442 44.4586 70.4687 42.2872 70.4687 38.0351C70.4687 34.0091 72.1877 31.6115 75.3542 31.6115C77.7743 31.6115 79.154 33.0365 79.335 35.14H85.7133ZM110.189 35.14C109.691 29.395 105.484 26.138 99.6488 26.138C93.4062 26.138 88.4755 30.2997 88.4755 38.0351C88.4755 45.7365 93.2705 49.9321 99.6488 49.9321C106.434 49.9321 109.872 45.2276 110.189 41.2921L103.81 41.2468C103.494 43.2259 102.092 44.4586 99.7845 44.4586C96.7197 44.4586 94.9442 42.2872 94.9442 38.0351C94.9442 34.0091 96.6632 31.6115 99.8297 31.6115C102.25 31.6115 103.63 33.0365 103.81 35.14H110.189Z" fill="black"/>
  </g>
</svg>