<svg viewBox="0 0 24 24" fill="none" xmlns="http://www.w3.org/2000/svg">
  <g id="root">
    <path d="M20.6,2.6H3.4a.86.86,0,0,0-.8.8V20.6a.79.79,0,0,0,.8.8H20.6a.79.79,0,0,0,.8-.8V3.4A.86.86,0,0,0,20.6,2.6Zm-.9,17.1H4.3V4.3H19.7Z" fill="currentColor" />
    <path d="M6.6,17.6H8.5a.22.22,0,0,0,.2-.2V6.6a.22.22,0,0,0-.2-.2H6.6a.22.22,0,0,0-.2.2V17.5A.35.35,0,0,0,6.6,17.6Zm4.5-6.5H13a.22.22,0,0,0,.2-.2V6.6a.22.22,0,0,0-.2-.2H11.1a.22.22,0,0,0-.2.2v4.3A.22.22,0,0,0,11.1,11.1Zm4.5,1.7h1.9a.22.22,0,0,0,.2-.2v-6a.22.22,0,0,0-.2-.2H15.6a.22.22,0,0,0-.2.2v6A.22.22,0,0,0,15.6,12.8Z" fill="currentColor" />
  </g>
</svg>
