<svg viewBox="0 0 24 24" fill="none" xmlns="http://www.w3.org/2000/svg">
  <g id="root">
    <path d="M20.6,2.6H3.4a.86.86,0,0,0-.8.8V20.6a.79.79,0,0,0,.8.8H20.6a.79.79,0,0,0,.8-.8V3.4A.86.86,0,0,0,20.6,2.6Zm-.9,17.1H4.3V4.3H19.7Z" fill="currentColor" />
    <path d="M7.1,12.3H8.3a.22.22,0,0,0,.2-.2V10.3a.79.79,0,0,1,.8-.8h4.8v1.3a.19.19,0,0,0,.3.1l2.6-2V8.6l-2.6-2a.19.19,0,0,0-.3.1V8H9.3A2.2,2.2,0,0,0,7,10.3v1.8A.35.35,0,0,0,7.1,12.3ZM7,15.4l2.6,2a.19.19,0,0,0,.3-.1V16h4.8A2.33,2.33,0,0,0,17,13.7V11.9a.22.22,0,0,0-.2-.2H15.6a.22.22,0,0,0-.2.2v1.8a.79.79,0,0,1-.8.8H9.9V13.2a.19.19,0,0,0-.3-.1L7,15.1Z" fill="currentColor" />
  </g>
</svg>
