<svg viewBox="0 0 24 24" fill="none" xmlns="http://www.w3.org/2000/svg">
  <g id="root">
    <path id="Vector" d="M21.6303 16.4508H7.67325L8.37403 15.0234L20.0178 15.0023C20.4115 15.0023 20.749 14.7211 20.8193 14.332L22.4318 5.30625C22.474 5.06953 22.4107 4.82578 22.2561 4.64062C22.1796 4.5495 22.0842 4.4761 21.9766 4.42551C21.8689 4.37492 21.7516 4.34835 21.6326 4.34766L6.82012 4.29844L6.69356 3.70312C6.61387 3.32344 6.27168 3.04688 5.88262 3.04688H2.26153C2.0421 3.04688 1.83167 3.13404 1.67651 3.2892C1.52135 3.44436 1.43419 3.65479 1.43419 3.87422C1.43419 4.09364 1.52135 4.30408 1.67651 4.45924C1.83167 4.6144 2.0421 4.70156 2.26153 4.70156H5.21231L5.76543 7.33125L7.12715 13.9242L5.37403 16.7859C5.28299 16.9088 5.22815 17.0547 5.21572 17.2071C5.2033 17.3596 5.23378 17.5124 5.30372 17.6484C5.44434 17.9273 5.72793 18.1031 6.042 18.1031H7.51387C7.20009 18.5199 7.0306 19.0275 7.03106 19.5492C7.03106 20.8758 8.10918 21.9539 9.43575 21.9539C10.7623 21.9539 11.8404 20.8758 11.8404 19.5492C11.8404 19.0266 11.667 18.518 11.3576 18.1031H15.1334C14.8196 18.5199 14.6501 19.0275 14.6506 19.5492C14.6506 20.8758 15.7287 21.9539 17.0553 21.9539C18.3818 21.9539 19.46 20.8758 19.46 19.5492C19.46 19.0266 19.2865 18.518 18.9772 18.1031H21.6326C22.0873 18.1031 22.46 17.7328 22.46 17.2758C22.4586 17.0566 22.3706 16.8468 22.2152 16.6923C22.0597 16.5377 21.8495 16.4509 21.6303 16.4508ZM7.16465 5.92969L20.66 5.97422L19.3381 13.3758L8.73731 13.3945L7.16465 5.92969ZM9.43575 20.2898C9.02793 20.2898 8.69512 19.957 8.69512 19.5492C8.69512 19.1414 9.02793 18.8086 9.43575 18.8086C9.84356 18.8086 10.1764 19.1414 10.1764 19.5492C10.1764 19.7456 10.0983 19.934 9.95945 20.0729C9.82055 20.2118 9.63217 20.2898 9.43575 20.2898ZM17.0553 20.2898C16.6475 20.2898 16.3147 19.957 16.3147 19.5492C16.3147 19.1414 16.6475 18.8086 17.0553 18.8086C17.4631 18.8086 17.7959 19.1414 17.7959 19.5492C17.7959 19.7456 17.7179 19.934 17.579 20.0729C17.4401 20.2118 17.2517 20.2898 17.0553 20.2898Z" fill="currentColor"/>
  </g>
</svg>
